<svg xmlns="http://www.w3.org/2000/svg" viewBox="0 0 64 64">
  <defs>
    <linearGradient id="g" x1="0" y1="0" x2="1" y2="1">
      <stop offset="0" stop-color="#f97316"/>
      <stop offset="1" stop-color="#fb7185"/>
    </linearGradient>
  </defs>
  <rect width="64" height="64" rx="14" fill="url(#g)"/>
  <!-- Simple house -->
  <path d="M14 30.5 32 16l18 14.5V49a3 3 0 0 1-3 3H17a3 3 0 0 1-3-3V30.5Z" fill="#fff" opacity="0.95"/>
  <path d="M25 52V38a2 2 0 0 1 2-2h10a2 2 0 0 1 2 2v14" fill="#fff"/>
  <!-- Heart -->
  <path d="M44.5 28.2c-2.1 0-3.6 1.3-4.5 2.6-.9-1.3-2.4-2.6-4.5-2.6-2.6 0-4.5 1.9-4.5 4.6 0 4.7 7.2 8.9 9 10.1 1.8-1.2 9-5.4 9-10.1 0-2.7-1.9-4.6-4.5-4.6Z" fill="#fb7185"/>
</svg>


